<?xml version="1.0" encoding="UTF-8"?>
<svg width="134px" height="44px" viewBox="0 0 134 44" version="1.1" xmlns="http://www.w3.org/2000/svg" xmlns:xlink="http://www.w3.org/1999/xlink">
    <title>Group 31</title>
    <defs>
        <polygon id="path-1" points="0 43.7029706 133.561784 43.7029706 133.561784 -0.000542721003 0 -0.000542721003"></polygon>
    </defs>
    <g id="页面-1" stroke="none" stroke-width="1" fill="none" fill-rule="evenodd">
        <g id="精鲲官网" transform="translate(-360.000000, -20.000000)">
            <g id="Group-30" transform="translate(360.000000, 20.000000)">
                <path d="M38.737227,7.94290279 C36.0427405,7.94290279 33.8570919,10.1264503 33.8570919,12.8165374 C33.8570919,15.5102426 36.0427405,17.6937901 38.737227,17.6937901 C41.4317135,17.6937901 43.6173622,15.5102426 43.6173622,12.8165374 C43.6173622,10.1264503 41.4317135,7.94290279 38.737227,7.94290279" id="Fill-1" fill="#23AF98"></path>
                <path d="M53.3942919,14.3665486 C53.1860486,14.1494602 52.9524541,13.9558897 52.6989405,13.7912643 C52.0760216,13.3860326 51.3335892,13.1472354 50.5350216,13.1472354 C48.3439405,13.1472354 46.5675351,14.9237421 46.5675351,17.1127169 C46.5675351,18.2144405 47.0202378,19.2130471 47.7481838,19.9312479 C47.9274541,20.0687373 48.1031027,20.2134629 48.2715081,20.3636157 C50.0859405,21.9863515 51.2358054,24.3381425 51.2358054,26.9594849 C51.2358054,31.79332 47.3588595,35.7153838 42.5439135,35.8094554 C44.6535081,35.8962908 46.3357514,37.6275708 46.3357514,39.7568462 C46.3357514,41.7848137 44.807427,43.4545853 42.8390757,43.6843372 C51.8714,43.4346855 59.1200757,36.0446345 59.1200757,26.9594849 C59.1200757,21.9375066 56.9018324,17.4329222 53.3942919,14.3665486" id="Fill-3" fill="#23AF98"></path>
                <path d="M29.5549676,37.7343059 C27.2262649,34.9736651 25.7758054,31.4495967 25.6309405,27.5926594 C25.6236973,27.3809982 25.6182649,27.1711461 25.6182649,26.961294 L25.6182649,26.9558668 L25.6182649,26.9685303 C25.6182649,30.2773193 23.8002108,33.1609769 21.1093459,34.6805957 C21.0948595,34.6842139 21.0785622,34.6896411 21.0658865,34.6950683 C20.8413459,34.7819036 20.6294811,34.8886388 20.4266703,35.0134646 C19.3075892,35.5236224 18.065373,35.8166917 16.7507243,35.8166917 C11.8579135,35.8166917 7.88861622,31.8548284 7.88499459,26.9649121 C7.88680541,24.9785533 8.54050811,23.1477744 9.6451027,21.6697642 C9.64872432,21.6661461 9.65053514,21.664337 9.65234595,21.6607189 C9.73383243,21.5521747 9.81894054,21.4454395 9.90404865,21.3405135 C9.9131027,21.3314681 9.92396757,21.3188046 9.93302162,21.3079502 C10.0126973,21.2120695 10.092373,21.1179979 10.1756703,21.0275444 C10.1937784,21.0076446 10.2118865,20.9877448 10.2299946,20.9696541 C10.3060486,20.8864369 10.3839135,20.8068378 10.4635892,20.7254297 C10.4871297,20.7001027 10.5142919,20.6747757 10.5396432,20.6512578 C10.6120757,20.578895 10.6863189,20.5083413 10.762373,20.4377875 C10.7967784,20.4070333 10.8311838,20.3762792 10.8655892,20.345525 C10.9344,20.2840166 11.0032108,20.2243173 11.0720216,20.166427 C11.1172919,20.1302456 11.1607514,20.0940642 11.2060216,20.0578828 C11.2694,20.0090379 11.3327784,19.958384 11.3961568,19.9095391 C11.4486703,19.8697396 11.5029946,19.82994 11.5591297,19.7901405 C11.6152649,19.7503409 11.6732108,19.7069233 11.7311568,19.6671237 C11.7945351,19.623706 11.8579135,19.5839065 11.9212919,19.5404888 L12.0788324,19.44099 C12.1494541,19.3957632 12.2236973,19.3541546 12.2961297,19.3107369 C12.3432108,19.2854099 12.3884811,19.2564648 12.4355622,19.2311378 C12.5152378,19.1859111 12.5985351,19.1424934 12.6800216,19.0990757 C12.7216703,19.0773669 12.7615081,19.0574671 12.8031568,19.0375673 C12.8918865,18.9941497 12.982427,18.950732 13.0729676,18.9091234 C13.1091838,18.8928417 13.1435892,18.8765601 13.1816162,18.8584694 C13.2775892,18.8168608 13.375373,18.7770613 13.4749676,18.7372617 C13.5057514,18.7245982 13.5383459,18.7119347 13.5691297,18.7010803 C13.6723459,18.6612808 13.777373,18.6232903 13.8842108,18.5871089 C13.911373,18.5762545 13.9385351,18.5672091 13.9675081,18.5581638 C14.0761568,18.5219824 14.188427,18.4876101 14.2988865,18.4568559 C14.3242378,18.4496196 14.3495892,18.4423833 14.3749405,18.435147 C14.4890216,18.4025838 14.6049135,18.3736387 14.7208054,18.3465026 C14.7443459,18.3410754 14.7660757,18.3338391 14.791427,18.3284119 C14.9091297,18.3030849 15.0286432,18.279567 15.1481568,18.2560491 C15.1716973,18.252431 15.193427,18.2488128 15.2169676,18.2451947 C15.3364811,18.2252949 15.4596162,18.2053951 15.5809405,18.1891135 C15.6044811,18.1854954 15.6280216,18.1836863 15.6515622,18.1800682 C15.7728865,18.1655956 15.8960216,18.1529321 16.0191568,18.1420777 C16.0445081,18.1402686 16.0698595,18.1384596 16.0952108,18.1366505 C16.2165351,18.1276051 16.3396703,18.1203689 16.4628054,18.1167507 L16.5135081,18.1167507 C16.5895622,18.1203689 16.6656162,18.1276051 16.7452919,18.1276051 C16.8249676,18.1276051 16.9046432,18.1203689 16.9825081,18.1149416 L16.9988054,18.1149416 C19.070373,17.9828795 20.7127784,16.2678812 20.7127784,14.1639327 C20.7127784,12.155865 19.2170486,10.500566 17.2776703,10.2400599 C17.1038324,10.216542 16.9245622,10.1984513 16.7452919,10.1984513 C16.5660216,10.1984513 16.3921838,10.2147329 16.2201568,10.2382508 C16.1404811,10.241869 16.0608054,10.2491052 15.9811297,10.2527234 C15.9032649,10.2563415 15.8254,10.2599597 15.7475351,10.2635778 C15.5429135,10.2762413 15.3382919,10.2907138 15.1354811,10.3124227 C15.0576162,10.319659 14.9797514,10.3287043 14.9018865,10.3359406 C14.7008865,10.3576494 14.5016973,10.3829764 14.3025081,10.4119215 C14.2246432,10.422776 14.1467784,10.4354394 14.0689135,10.4481029 C13.8715351,10.4806662 13.6741568,10.5150385 13.4804,10.5548381 C13.4025351,10.5675016 13.3282919,10.5837832 13.250427,10.6000648 C13.0566703,10.6416734 12.8629135,10.6869002 12.6709676,10.733936 C12.5967243,10.7538358 12.5224811,10.7719265 12.4482378,10.7918262 C12.2562919,10.8424802 12.0643459,10.8967523 11.8760216,10.9546425 C11.8054,10.9763514 11.7347784,10.9980602 11.6641568,11.0197691 C11.4722108,11.0830865 11.2838865,11.146404 11.0955622,11.2133396 C11.0285622,11.2368575 10.9615622,11.2603754 10.8945622,11.2857024 C10.704427,11.3562561 10.5179135,11.430428 10.3332108,11.5064089 C10.2698324,11.5335449 10.2064541,11.5588719 10.1430757,11.587817 C9.95656216,11.6674161 9.77185946,11.7524424 9.58715676,11.8392778 C9.52921081,11.8646048 9.46945405,11.8935499 9.41150811,11.9206859 C9.22499459,12.0129485 9.0421027,12.1070201 8.86102162,12.2047099 C8.8066973,12.231846 8.75237297,12.2626002 8.69804865,12.2915453 C8.51515676,12.3928532 8.33226486,12.4977793 8.15299459,12.6027053 C8.1041027,12.6334595 8.05521081,12.6642137 8.00631892,12.6931588 C7.82523784,12.8053212 7.64415676,12.9192926 7.46850811,13.0386912 C7.42323784,13.0676363 7.37796757,13.0965814 7.33450811,13.1255266 C7.15523784,13.2485433 6.97777838,13.3751782 6.80394054,13.5036222 C6.76591351,13.5325673 6.72607568,13.5615124 6.68623784,13.5904575 C6.50877838,13.7243287 6.33494054,13.861818 6.16472432,14.0011164 C6.12850811,14.0282525 6.0941027,14.0553885 6.06150811,14.0843337 C5.88767027,14.2290593 5.71564324,14.377403 5.54723784,14.5275558 L5.46031892,14.6071549 C5.2901027,14.7627349 5.12350811,14.9219331 4.95872432,15.0829403 C4.93337297,15.1082673 4.90802162,15.1335943 4.88267027,15.1589212 C4.71788649,15.3235466 4.55491351,15.4935992 4.39556216,15.669079 C4.37564324,15.6889788 4.35391351,15.7124967 4.33399459,15.7360146 C4.17283243,15.9114944 4.01529189,16.0942104 3.86318378,16.2805447 L3.81248108,16.3384349 C3.65675135,16.5265782 3.50464324,16.7201487 3.35796757,16.9173373 C3.34529189,16.9336189 3.33080541,16.9517096 3.31812973,16.9679913 C3.16964324,17.166989 3.02477838,17.3714139 2.88353514,17.5776478 C2.87448108,17.5921204 2.86361622,17.606593 2.85456216,17.6210655 C2.71331892,17.8309177 2.5756973,18.0443879 2.44350811,18.2596672 C2.43626486,18.2723307 2.42902162,18.2849942 2.41996757,18.2976577 C2.28596757,18.5183643 2.1574,18.7408799 2.03426486,18.9688227 C2.02883243,18.977868 2.0234,18.9869134 2.01796757,18.9959587 C1.89483243,19.2275197 1.77531892,19.4590807 1.65942703,19.6960688 L1.65037297,19.7159686 C1.53448108,19.9547658 1.42583243,20.1971812 1.32080541,20.4414057 C1.31899459,20.4468329 1.31718378,20.450451 1.31537297,20.4558782 C1.21034595,20.7037208 1.11075135,20.9551816 1.0184,21.2084514 L1.01658919,21.2138786 C0.359264865,23.0048579 0.000724324324,24.9405628 0.000724324324,26.9594849 L0.000724324324,26.9649121 L0.000724324324,26.9685303 C0.000724324324,36.2092599 7.49929189,43.7024279 16.7507243,43.7024279 C21.8916162,43.7024279 26.4874541,41.3886273 29.5604,37.7487785 L29.5622108,37.7433513 C29.5604,37.7397331 29.5567784,37.737924 29.5549676,37.7343059" id="Fill-5" fill="#003A51"></path>
                <path d="M42.5444568,35.8085509 C42.4847,35.8103599 42.4285649,35.8175962 42.3688081,35.8175962 C42.3108622,35.8175962 42.254727,35.8103599 42.1985919,35.8085509 C37.5049703,35.7199064 33.7131324,31.9914132 33.5211865,27.3276307 C33.5157541,27.2046139 33.5030784,27.0852153 33.5030784,26.9603895 C33.5030784,26.7487283 33.4958351,26.5388761 33.4885919,26.329024 L33.4885919,26.327215 C33.4813486,26.120981 33.4668622,25.914747 33.4523757,25.7103221 C33.4487541,25.6687135 33.4469432,25.6234867 33.4433216,25.5818781 C33.4288351,25.4027802 33.410727,25.2254913 33.3889973,25.0500115 C33.3817541,24.9812669 33.3745108,24.9107131 33.3654568,24.8419685 C33.3455378,24.6863885 33.3238081,24.5308084 33.2984568,24.3752284 C33.2839703,24.286584 33.2712946,24.1961305 33.2568081,24.1074861 C33.2314568,23.9699967 33.2061054,23.8361256 33.1789432,23.7004453 C33.1590243,23.5937102 33.1372946,23.485166 33.1137541,23.382049 C33.0884027,23.2608413 33.0594297,23.1450608 33.0322676,23.0274713 C33.0014838,22.9044545 32.9725108,22.7832468 32.9399162,22.66023 C32.9127541,22.5607312 32.8855919,22.4576142 32.8548081,22.3563063 C32.8149703,22.220626 32.7751324,22.0849458 32.7334838,21.9492655 C32.7063216,21.8642392 32.6791595,21.7792129 32.6519973,21.6959957 C32.6012946,21.5440338 32.5469703,21.392072 32.4944568,21.2437282 L32.4202135,21.0429215 C32.3568351,20.8746779 32.2880243,20.7064344 32.2192135,20.5436181 C32.2011054,20.4947732 32.1811865,20.4477374 32.1612676,20.4007016 C32.0815919,20.2143674 31.9982946,20.0280332 31.9095649,19.8453171 C31.8987,19.8199901 31.8878351,19.7946631 31.8751595,19.7711452 C31.257673,18.4758511 30.4754027,17.2728196 29.5609432,16.1855685 C26.6020784,12.6832089 22.2307811,10.4146351 17.3252946,10.2482007 C17.3089973,10.2463916 17.2927,10.2409644 17.2764027,10.2391554 C19.2157811,10.5014705 20.7133216,12.1567696 20.7133216,14.1630282 C20.7133216,16.2669766 19.0709162,17.981975 16.9993486,18.1158462 C17.7417811,18.1357459 18.460673,18.2479083 19.1469703,18.4396697 C19.1487811,18.4396697 19.1505919,18.4396697 19.1524027,18.4414788 C19.2864027,18.4794692 19.4185919,18.5192688 19.5507811,18.5644955 C19.5707,18.5699228 19.5888081,18.5789681 19.608727,18.5843953 C19.7209973,18.6223858 19.8332676,18.6621853 19.9455378,18.705603 C19.9781324,18.7182665 20.010727,18.7327391 20.0451324,18.7454025 C20.1392946,18.7852021 20.2352676,18.8213835 20.3276189,18.8648012 C20.3728892,18.8847009 20.4163486,18.9046007 20.4616189,18.9245005 C20.5412946,18.9624909 20.6227811,19.0004814 20.7024568,19.0384719 C20.7567811,19.067417 20.8092946,19.0963621 20.8636189,19.1234982 C20.9306189,19.1596796 20.9994297,19.1922428 21.0646189,19.2320424 C21.1279973,19.2646056 21.1895649,19.3025961 21.2511324,19.3387775 C21.3054568,19.3713408 21.3615919,19.403904 21.4159162,19.4382764 C21.4865378,19.481694 21.5553486,19.5269208 21.6241595,19.5721475 C21.6676189,19.6010927 21.7128892,19.6300378 21.7545378,19.6589829 C21.8324027,19.713255 21.9084568,19.7675271 21.9845108,19.8236083 C22.0171054,19.8471262 22.0497,19.868835 22.0822946,19.8923529 C22.1655919,19.9556704 22.2488892,20.022606 22.3303757,20.0895416 C22.3521054,20.1058232 22.3738351,20.1221048 22.3955649,20.1401955 C22.4861054,20.2161765 22.5748351,20.2921574 22.6635649,20.3717565 C22.6726189,20.3808018 22.6852946,20.3916563 22.6961595,20.3988925 C22.7921324,20.487537 22.8862946,20.5761814 22.9786459,20.668444 C22.9804568,20.670253 22.9804568,20.670253 22.9804568,20.670253 C24.6047541,22.2730891 25.6133757,24.4964361 25.6169973,26.9549622 L25.6169973,26.9603895 C25.6169973,27.1720506 25.6242405,27.3819028 25.6314838,27.5917549 C25.7745378,31.4505012 27.2268081,34.9727605 29.5555108,37.7334014 C29.5573216,37.7370195 29.5609432,37.7388286 29.5627541,37.7424467 C32.5415378,41.2719423 36.9562946,43.5477524 41.9052405,43.6834326 C42.0591595,43.6852417 42.2130784,43.6942871 42.3688081,43.6942871 C42.5263486,43.6942871 42.6820784,43.6870508 42.8396189,43.6834326 C44.8079703,43.4554898 46.3362946,41.7857182 46.3362946,39.7577507 C46.3362946,37.6284753 44.6540514,35.8971953 42.5444568,35.8085509" id="Fill-7" fill="#1C6486"></path>
                <path d="M96.2100081,26.1273127 C97.3146027,26.1273127 97.3743595,24.9803623 97.3743595,24.9803623 L97.3743595,23.5566242 L91.5272514,23.5566242 L91.5272514,21.6245375 L96.2172514,21.6245375 L96.2100081,21.6191103 C97.3146027,21.6191103 97.3743595,20.4721599 97.3743595,20.4721599 L97.3743595,19.0484218 L91.5272514,19.0484218 L91.5272514,17.116335 L96.2100081,17.116335 C97.3146027,17.116335 97.3743595,15.9639574 97.3743595,15.9639574 L97.3743595,14.5402193 L91.5272514,14.5402193 L91.5272514,13.1942712 L88.9486568,13.1942712 L88.9486568,14.5402193 L83.0997378,14.5402193 L83.0997378,17.116335 L88.9486568,17.116335 L88.9486568,19.0484218 L83.0997378,19.0484218 L83.0997378,21.6245375 L88.9486568,21.6245375 L88.9486568,23.5566242 L83.0997378,23.5566242 L83.0997378,26.1327399 L96.2172514,26.1327399 L96.2100081,26.1273127 Z" id="Fill-9" fill="#003A51"></path>
                <mask id="mask-2" fill="white">
                    <use xlink:href="#path-1"></use>
                </mask>
                <g id="Clip-12"></g>
                <path d="M85.597027,36.8773494 L94.8792432,36.8773494 L94.8792432,34.7317924 L85.597027,34.7317924 L85.597027,36.8773494 Z M86.468027,30.1240911 L94.0100541,30.1240911 C94.4899189,30.1240911 94.8792432,30.5130411 94.8792432,30.9924447 L94.8792432,32.1574858 L85.597027,32.1574858 L85.597027,30.9924447 C85.597027,30.5130411 85.9863514,30.1240911 86.468027,30.1240911 L86.468027,30.1240911 Z M94.0100541,27.5479754 L86.468027,27.5479754 C84.5648649,27.5479754 83.0184324,29.0929212 83.0184324,30.9924447 L83.0184324,42.8219535 L85.597027,42.8219535 L85.597027,39.4534651 L94.8792432,39.4534651 L94.8792432,40.2566922 C94.8792432,40.7360958 94.4899189,41.1268549 94.0100541,41.1268549 L94.0100541,43.7029706 C95.9095946,43.7029706 97.4578378,42.1580248 97.4578378,40.2566922 L97.4578378,30.9924447 C97.4578378,29.0929212 95.9095946,27.5479754 94.0100541,27.5479754 L94.0100541,27.5479754 Z" id="Fill-11" fill="#003A51" mask="url(#mask-2)"></path>
                <polygon id="Fill-13" fill="#003A51" mask="url(#mask-2)" points="69.5677297 20.4600391 72.1463243 20.4600391 72.1463243 14.5715162 69.5677297 14.5715162"></polygon>
                <path d="M79.6262405,20.4562401 C80.5950243,20.4562401 80.7598081,19.575223 80.7905919,19.3545164 L80.7905919,14.5731444 L78.2119973,14.5731444 L78.2119973,20.4616673 L79.6334838,20.4616673 L79.6262405,20.4562401 Z" id="Fill-14" fill="#003A51" mask="url(#mask-2)"></path>
                <path d="M76.4689108,26.1643987 L76.4689108,24.5868896 L79.6740459,24.5868896 L79.6668027,24.5832715 C80.5939378,24.5832715 80.7895054,23.76919 80.8275324,23.5104929 L80.8275324,22.0107739 L76.4689108,22.0107739 L76.4689108,13.1445218 L73.8903162,13.1445218 L73.8903162,22.0107739 L69.5335054,22.0107739 L69.5335054,24.5868896 L73.8903162,24.5868896 L73.8903162,26.1969619 C71.4058838,26.8048094 69.5552351,29.04082 69.5552351,31.7073892 L69.5552351,41.1489256 L72.1338297,41.1489256 L72.1338297,31.7073892 C72.1338297,30.4808397 72.8527216,29.4207247 73.8903162,28.9159941 L73.8903162,42.8223153 L76.4689108,42.8223153 L76.4689108,28.8562948 C77.5735054,29.3338893 78.3485324,30.4319948 78.3485324,31.7073892 L78.3485324,41.1489256 L80.9253162,41.1489256 L80.9253162,31.7073892 C80.9253162,28.9974023 79.0149108,26.7288285 76.4689108,26.1643987" id="Fill-15" fill="#003A51" mask="url(#mask-2)"></path>
                <path d="M108.322522,29.8212528 L108.322522,32.8568723 L110.899305,32.8568723 L110.899305,29.931606 C110.071765,29.7941167 109.197143,29.7724079 108.322522,29.8212528" id="Fill-16" fill="#003A51" mask="url(#mask-2)"></path>
                <path d="M103.36923,30.7435167 L103.36923,32.8908828 C103.36923,34.9713133 104.906608,36.6971661 106.905743,36.9938536 C107.104932,37.0282259 107.316797,37.0408894 107.526851,37.0408894 L111.706203,37.0408894 C113.996878,37.0408894 115.862014,35.1811654 115.862014,32.8908828 L115.862014,32.199818 C114.956608,31.6353882 114.092851,31.1216123 113.28523,30.727235 L113.28523,32.8908828 C113.28523,33.7592364 112.577203,34.4683918 111.706203,34.4683918 L107.526851,34.4683918 C106.657662,34.4683918 105.949635,33.7592364 105.949635,32.8908828 L105.949635,30.1211966 C105.013446,30.2966764 104.131581,30.5210011 103.36923,30.7435167" id="Fill-17" fill="#003A51" mask="url(#mask-2)"></path>
                <path d="M122.848846,40.2252144 L121.552305,40.2252144 L121.552305,38.5825788 C121.541441,38.4396623 121.545062,38.3220728 121.552305,38.2551372 L121.552305,37.9512134 L121.554116,35.590377 C120.684927,35.1562002 119.824792,34.6659423 118.982765,34.1557845 L118.982765,37.7431703 L118.973711,37.7431703 L118.973711,38.1755381 C118.966468,38.3039821 118.962846,38.4722256 118.973711,38.6730323 L118.973711,40.5399926 C118.973711,40.5399926 118.778143,42.797712 120.53463,42.797712 L122.457711,42.797712 L122.441414,42.774194 C122.573603,42.7868575 122.705792,42.797712 122.848846,42.797712 L124.409765,42.797712 C125.373116,42.7018312 125.429251,41.6543797 125.429251,41.6543797 L125.429251,40.2179781 L122.848846,40.2179781 L122.848846,40.2252144 Z" id="Fill-18" fill="#003A51" mask="url(#mask-2)"></path>
                <path d="M120.347392,21.5443957 L129.636851,21.5443957 L129.636851,24.1657381 C129.636851,24.3231272 129.508284,24.4551893 129.350743,24.4551893 L120.6335,24.4551893 C120.47777,24.4551893 120.347392,24.3231272 120.347392,24.1657381 L120.347392,21.5443957 Z M120.347392,16.3469375 C120.347392,16.1859303 120.47777,16.0592954 120.6335,16.0592954 L129.350743,16.0592954 C129.508284,16.0592954 129.636851,16.1859303 129.636851,16.3469375 L129.636851,18.96828 L120.347392,18.96828 L120.347392,16.3469375 Z M120.6335,27.0331141 L129.350743,27.0331141 C130.931581,27.0331141 132.215446,25.7450562 132.215446,24.1657381 L132.215446,16.3469375 C132.215446,14.7676194 130.931581,13.4813706 129.350743,13.4813706 L120.6335,13.4813706 C119.054473,13.4813706 117.766986,14.7676194 117.766986,16.3469375 L117.766986,24.1657381 C117.766986,25.7450562 119.054473,27.0331141 120.6335,27.0331141 L120.6335,27.0331141 Z" id="Fill-19" fill="#003A51" mask="url(#mask-2)"></path>
                <path d="M103.350759,39.9549393 L103.350759,42.5690455 L103.524597,42.5419095 L114.709976,40.6496222 C114.883814,40.6496222 115.026868,40.618868 115.153624,40.5736413 C115.834489,40.3185624 115.876138,39.4972446 115.876138,39.4972446 L115.876138,37.8383274 L103.524597,39.9241852 L103.350759,39.9549393 Z" id="Fill-20" fill="#003A51" mask="url(#mask-2)"></path>
                <path d="M130.308662,40.2252144 L129.012122,40.2252144 L129.012122,38.5898151 C129.001257,38.4468986 129.004878,38.3256909 129.012122,38.2551372 L129.012122,37.9512134 L129.012122,37.0448693 C128.193635,37.1516045 127.326257,37.1859768 126.44077,37.1118049 L126.44077,38.0416669 C126.431716,38.1900106 126.415419,38.8268033 126.444392,39.1795719 L126.444392,40.5399926 C126.444392,40.5399926 126.248824,42.797712 128.0035,42.797712 L129.928392,42.797712 L129.915716,42.7796213 L129.917527,42.7796213 C130.040662,42.7904757 130.171041,42.797712 130.308662,42.797712 L131.869581,42.797712 C132.704365,42.7163038 132.861905,41.9130767 132.885446,41.7032246 L132.885446,40.2179781 L130.308662,40.2179781 L130.308662,40.2252144 Z" id="Fill-21" fill="#003A51" mask="url(#mask-2)"></path>
                <path d="M113.28197,26.9169718 C112.811159,26.7469192 112.327673,26.6021936 111.827889,26.4918403 C111.520051,26.4212866 111.210403,26.3670145 110.900754,26.3235968 L110.900754,23.2644594 L108.934214,23.2644594 C108.416322,23.2644594 108.333024,23.693209 108.322159,23.8560253 L108.322159,26.2060073 C107.503673,26.2385705 106.703295,26.3308331 105.949997,26.4538499 L105.949997,25.9581647 L105.946376,25.9581647 L105.946376,23.4996385 C105.946376,22.6312849 106.654403,21.9239385 107.523592,21.9239385 L111.704754,21.9239385 C112.573943,21.9239385 113.28197,22.6312849 113.28197,23.4996385 L113.28197,26.9169718 Z M129.014295,33.2107263 L129.014295,31.3853747 L129.017916,28.3316645 L126.441132,28.3316645 L126.441132,33.2052991 C126.162268,33.176354 125.881592,33.1437908 125.593673,33.0967549 C124.13597,32.8543396 122.815889,32.3152367 121.555565,31.6386445 L121.555565,31.3853747 L121.562808,28.3316645 L118.982403,28.3316645 L118.982403,30.0828443 C117.953862,29.4152975 116.928943,28.731469 115.862376,28.1272396 L115.862376,26.6202843 L115.862376,23.4996385 C115.862376,21.419208 114.324997,19.6933552 112.325862,19.3966677 C112.286024,19.3894315 112.244376,19.3876224 112.202727,19.3821952 L112.327673,19.2320424 L114.507889,16.6197453 C114.504268,16.6052727 114.500646,16.5926092 114.500646,16.5926092 C115.138051,15.9123989 115.168835,14.8667564 115.168835,14.8667564 L115.168835,14.2154912 L106.757619,14.2154912 L106.757619,13.1445218 L104.179024,13.1445218 L104.179024,15.6247568 C104.179024,16.8639697 105.372349,16.7879888 105.372349,16.7879888 L105.372349,16.7916069 L111.005781,16.7916069 L109.008457,19.1850066 L108.870835,19.3478229 L107.523592,19.3478229 C105.234727,19.3478229 103.369592,21.2093559 103.369592,23.4996385 L103.369592,25.9581647 L103.369592,27.0291341 C102.799186,27.1901414 102.299403,27.3529577 101.895592,27.4940651 L101.895592,30.0159087 C103.90197,29.3103714 108.204457,28.0548768 111.509186,28.8454404 C114.942484,29.6685673 119.989214,34.493357 124.921862,35.6710616 C128.373268,36.4941884 131.808376,35.3164838 133.563051,34.5331565 L133.563051,32.038449 C132.550808,32.4816711 130.955484,33.0352466 129.014295,33.2107263 L129.014295,33.2107263 Z" id="Fill-22" fill="#003A51" mask="url(#mask-2)"></path>
                <path d="M85.4901892,1.37344595 L86.5404595,1.37344595 L86.5404595,5.32626392 C86.5404595,6.26698033 86.1348378,6.73733853 85.3471351,6.73733853 C84.7459459,6.73733853 84.2443514,6.42979663 83.8296757,5.86355772 L83.0184324,6.83502831 C83.5435676,7.54599283 84.4181892,7.93675195 85.3797297,7.93675195 C87.0655946,7.93675195 87.9619459,7.05392578 87.9619459,5.25028298 L87.9619459,0.183077885 L85.4901892,0.183077885 L85.4901892,1.37344595 Z" id="Fill-23" fill="#003A51" mask="url(#mask-2)"></path>
                <path d="M101.057186,3.40249888 L99.2065378,3.08410255 C98.2649162,2.92309532 98.1544568,2.55766318 98.1544568,2.29534803 C98.1544568,1.4885028 99.1105649,1.27503254 99.6755378,1.27503254 C101.303457,1.27503254 101.589565,1.95886101 101.665619,2.47082782 L101.687349,2.61736249 L103.094349,2.61736249 L103.081673,2.43645549 C102.982078,0.887891561 101.792376,-0.000361814002 99.8167811,-0.000361814002 C97.9172405,-0.000361814002 96.7365919,0.911409471 96.7365919,2.37675618 C96.7365919,3.51647029 97.5116189,4.21115317 99.0363216,4.4445232 L100.684159,4.71950184 C101.55697,4.87689093 101.897403,5.13196981 101.897403,5.62946406 C101.897403,6.27530205 101.192997,6.69138815 100.102889,6.69138815 C99.128673,6.69138815 97.9607,6.43630928 97.931727,5.22061424 L97.9281054,5.0541798 L96.5120514,5.0541798 L96.5120514,5.22423238 C96.5120514,6.9663668 97.7922946,7.96497344 100.021403,7.96497344 C102.083916,7.96497344 103.317078,7.01340262 103.317078,5.4159938 C103.317078,3.83667568 101.674673,3.52008843 101.057186,3.40249888" id="Fill-24" fill="#003A51" mask="url(#mask-2)"></path>
                <path d="M110.390649,0.182716071 L103.475162,0.182716071 L103.475162,1.45811043 L106.223973,1.45811043 L106.223973,7.78442825 L107.017108,7.78442825 C107.362973,7.78442825 107.641838,7.50221333 107.641838,7.15849003 L107.641838,1.45811043 L110.390649,1.45811043 L110.390649,0.182716071 Z" id="Fill-25" fill="#003A51" mask="url(#mask-2)"></path>
                <path d="M123.741938,4.80000546 C123.463073,6.05550005 122.662695,6.69229269 121.362532,6.69229269 C119.461181,6.69229269 118.783938,5.34091739 118.783938,4.07456838 C118.783938,2.26911651 119.721938,1.27412801 121.4241,1.27412801 C122.700722,1.27412801 123.5681,1.91634786 123.740127,2.99274452 L123.763668,3.13566105 L125.172478,3.13566105 L125.156181,2.95113591 C125.027614,1.52377967 123.959235,0.000542721003 121.342614,0.000542721003 C118.926992,0.000542721003 117.366073,1.55634293 117.366073,3.96240604 C117.366073,5.29026343 117.809722,6.36485102 118.648127,7.06677018 C119.341668,7.64567259 120.303208,7.96587798 121.351668,7.96587798 C123.372532,7.96587798 124.973289,6.65792036 125.15437,4.85427756 L125.174289,4.66794335 L123.770911,4.66794335 L123.741938,4.80000546 Z" id="Fill-26" fill="#003A51" mask="url(#mask-2)"></path>
                <path d="M129.786968,3.38042822 L133.452049,0.181992443 L131.407643,0.181992443 L127.5814,3.6228436 L127.5814,0.181992443 L126.163535,0.181992443 L126.163535,7.78370463 L126.954859,7.78370463 C127.300724,7.78370463 127.5814,7.50329878 127.5814,7.15595733 L127.5814,5.32156034 L128.716778,4.31752649 L131.628562,7.78370463 L133.562508,7.78370463 L129.786968,3.38042822 Z" id="Fill-27" fill="#003A51" mask="url(#mask-2)"></path>
                <path d="M96.4028595,0.182716071 L94.3584541,0.182716071 L90.5322108,3.62175816 L90.5322108,0.182716071 L89.1143459,0.182716071 L89.1143459,7.78442825 L89.9056703,7.78442825 C90.2515351,7.78442825 90.5322108,7.50221333 90.5322108,7.15668096 L90.5322108,5.3204749 L91.6675892,4.31825011 L94.5775622,7.78442825 L96.5133189,7.78442825 L92.7377784,3.38115185 L96.4028595,0.182716071 Z" id="Fill-28" fill="#003A51" mask="url(#mask-2)"></path>
                <path d="M114.470224,4.53678577 L112.170495,4.53678577 L112.467468,3.8475301 L113.345711,1.77976308 L114.410468,4.39386924 L114.408657,4.39386924 L114.470224,4.53678577 Z M112.663035,0.182354257 L109.222495,7.78406644 L110.381414,7.78406644 C110.651224,7.78406644 110.892062,7.62125014 110.993468,7.37159848 L111.625441,5.81218013 L115.017089,5.81218013 L115.708819,7.38788011 C115.813846,7.62848642 116.051062,7.78406644 116.311819,7.78406644 L117.555846,7.78406644 L114.115305,0.182354257 L112.663035,0.182354257 Z" id="Fill-29" fill="#003A51" mask="url(#mask-2)"></path>
            </g>
        </g>
    </g>
</svg>
